{"title":"The Reeds-AC3-5,1-DVDRip[Eng]2009","uid":5469772,"size":1464044256,"categoryP":"video","categoryS":"movies","magnet":"?xt=urn:btih:9f783b4d667897d62d4badc78ff5c168b495c6cc&amp;dn=The+Reeds-AC3-5%2C1-DVDRip%5BEng%5D2009&amp;tr=udp%3A%2F%2Ftracker.openbittorrent.com%3A80&amp;tr=udp%3A%2F%2Fopen.demonii.com%3A1337&amp;tr=udp%3A%2F%2Ftracker.coppersurfer.tk%3A6969&amp;tr=udp%3A%2F%2Fexodus.desync.com%3A6969","seeders":1,"leechers":0,"uploader":"FatFreddy31","files":-1,"time":1269816468,"description":" &lt;a href=&quot;http://www.imdb.com/title/tt1327200/&quot; rel=&quot;nofollow&quot; target=&quot;_NEW&quot;&gt;http://www.imdb.com/title/tt1327200/&lt;/a&gt;\n &lt;a href=&quot;\nhttp://www.horrorfestonline.com/?p=775&quot; rel=&quot;nofollow&quot; target=&quot;_NEW&quot;&gt;\nhttp://www.horrorfestonline.com/?p=775&lt;/a&gt;\n\nUser Rating:5.5/10 - 108 votes\n\nHorror,Thriller.\n\nDirector:Nick Cohen\n\nCast:Karl Ashman/Geoff Bell/Anna Brewster/Emma Catherwood, and others.\n\nPlot:\nA weekend boating party turns into a nightmare for a group of young Londoners when they stumble upon a terrifying secret hidden in the reeds...\n\nInfo:\n\nCover included.\n\nSubtitles: English, Spanish, Romanian, Hungarian and Dutch ( SRT ).\n\nGeneral\nComplete name                    : The Reeds-AC3-5,1-DVDRip[Eng]2009.avi\nFormat                           : AVI\nFormat/Info                      : Audio Video Interleave\nFile size                        : 1.36 GiB\nDuration                         : 1h 26mn\nOverall bit rate                 : 2 262 Kbps\nWriting application              : VirtualDubMod 1.5.4.1 (build 2178/release)\nWriting library                  : VirtualDubMod build 2178/release\n\nVideo\nID                               : 0\nFormat                           : MPEG-4 Visual\nFormat profile                   : Simple@L3\nFormat settings, BVOP            : No\nFormat settings, QPel            : No\nFormat settings, GMC             : No warppoints\nFormat settings, Matrix          : Default (H.263)\nCodec ID                         : XVID\nCodec ID/Hint                    : XviD\nDuration                         : 1h 26mn\nBit rate                         : 1 805 Kbps\nWidth                            : 720 pixels\nHeight                           : 304 pixels\nDisplay aspect ratio             : 2.35:1\nFrame rate                       : 23.976 fps\nResolution                       : 24 bits\nColorimetry                      : 4:2:0\nScan type                        : Progressive\nBits/(Pixel*Frame)               : 0.344\nStream size                      : 1.09 GiB (80%)\nWriting library                  : XviD 1.1.2 (UTC 2006-11-01)\n\nAudio\nID                               : 1\nFormat                           : AC-3\nFormat/Info                      : Audio Coding 3\nCodec ID                         : 2000\nDuration                         : 1h 26mn\nBit rate mode                    : Constant\nBit rate                         : 448 Kbps\nChannel(s)                       : 6 channels\nChannel positions                : Front: L C R, Surround: L R, LFE\nSampling rate                    : 48.0 KHz\nStream size                      : 276 MiB (20%)\nAlignment                        : Split accross interleaves\nInterleave, duration             : 42 ms (1.00 video frame)\nInterleave, preload duration     : 500 ms\n\nEnjoy....","torrent":{"xt":"urn:btih:9f783b4d667897d62d4badc78ff5c168b495c6cc","amp;dn":"The+Reeds-AC3-5%2C1-DVDRip%5BEng%5D2009","amp;tr":["udp%3A%2F%2Ftracker.openbittorrent.com%3A80","udp%3A%2F%2Fopen.demonii.com%3A1337","udp%3A%2F%2Ftracker.coppersurfer.tk%3A6969","udp%3A%2F%2Fexodus.desync.com%3A6969"],"infoHash":"9f783b4d667897d62d4badc78ff5c168b495c6cc","infoHashBuffer":{"type":"Buffer","data":[159,120,59,77,102,120,151,214,45,75,173,199,143,245,193,104,180,149,198,204]},"announce":[],"urlList":[]}}